<?xml version="1.0" encoding="UTF-8" standalone="no"?>
<!DOCTYPE svg PUBLIC "-//W3C//DTD SVG 1.1//EN" "http://www.w3.org/Graphics/SVG/1.1/DTD/svg11.dtd">
<svg version="1.1" xmlns="http://www.w3.org/2000/svg" xmlns:xlink="http://www.w3.org/1999/xlink" preserveAspectRatio="xMidYMid meet" viewBox="0 0 16 16" width="16" height="16"><defs><path d="M15.51 3.18C15.78 3.18 16 3.4 16 3.67C16 3.96 16 4.36 16 4.65C16 4.93 15.78 5.15 15.51 5.15C12.41 5.15 3.59 5.15 0.49 5.15C0.22 5.15 0 4.93 0 4.65C0 4.36 0 3.96 0 3.67C0 3.4 0.22 3.18 0.49 3.18C3.59 3.18 12.41 3.18 15.51 3.18Z" id="a2URHkQRwO"></path><path d="M3.82 15.49C3.82 15.76 4.04 15.98 4.31 15.98C4.61 15.98 5 15.98 5.3 15.98C5.57 15.98 5.79 15.76 5.79 15.49C5.79 12.39 5.79 3.59 5.79 0.49C5.79 0.22 5.57 0 5.3 0C5 0 4.61 0 4.31 0C4.04 0 3.82 0.22 3.82 0.49C3.82 3.59 3.82 12.39 3.82 15.49Z" id="aCUVuayGc"></path><path d="M15.51 10.29C15.78 10.29 16 10.51 16 10.78C16 11.08 16 11.47 16 11.77C16 12.04 15.78 12.26 15.51 12.26C12.41 12.26 3.59 12.26 0.49 12.26C0.22 12.26 0 12.04 0 11.77C0 11.47 0 11.08 0 10.78C0 10.51 0.22 10.29 0.49 10.29C3.59 10.29 12.41 10.29 15.51 10.29Z" id="dnP2T0DB"></path><path d="M10.88 15.46C10.88 15.75 11.11 15.98 11.4 15.98C11.71 15.98 12.13 15.98 12.44 15.98C12.73 15.98 12.97 15.75 12.97 15.46C12.97 12.37 12.97 3.61 12.97 0.52C12.97 0.23 12.73 0 12.44 0C12.13 0 11.71 0 11.4 0C11.11 0 10.88 0.23 10.88 0.52C10.88 3.61 10.88 12.37 10.88 15.46Z" id="f1GFkB5lx0"></path></defs><g><g><g><use xlink:href="#a2URHkQRwO" opacity="1" fill="#b3804d" fill-opacity="1"></use></g><g><use xlink:href="#aCUVuayGc" opacity="1" fill="#b3804d" fill-opacity="1"></use></g><g><use xlink:href="#dnP2T0DB" opacity="1" fill="#b3804d" fill-opacity="1"></use></g><g><use xlink:href="#f1GFkB5lx0" opacity="1" fill="#b3804d" fill-opacity="1"></use></g></g></g></svg>