<?xml version="1.0" encoding="UTF-8" standalone="no"?>
<!DOCTYPE svg PUBLIC "-//W3C//DTD SVG 1.1//EN" "http://www.w3.org/Graphics/SVG/1.1/DTD/svg11.dtd">
<svg version="1.1" xmlns="http://www.w3.org/2000/svg" xmlns:xlink="http://www.w3.org/1999/xlink" preserveAspectRatio="xMidYMid meet" viewBox="0 0 10 10" width="10" height="10"><defs><path d="M10.16 0C10.16 0 10.16 0 10.16 0C10.16 6.1 10.16 9.48 10.16 10.16C10.16 10.16 10.16 10.16 10.16 10.16C4.06 10.16 0.68 10.16 0 10.16C0 10.16 0 10.16 0 10.16C0 4.06 0 0.68 0 0C0 0 0 0 0 0C6.1 0 9.48 0 10.16 0Z" id="aCJVywSkL"></path><path d="M9.82 2.49C9.82 2.64 9.82 2.91 9.82 3.06C9.82 3.25 9.71 3.36 9.52 3.36C7.71 3.36 2.42 3.36 0.6 3.36C0.42 3.36 0.3 3.25 0.3 3.06C0.3 2.91 0.3 2.64 0.3 2.49C0.3 2.3 0.42 2.19 0.6 2.19C2.42 2.19 7.71 2.19 9.52 2.19C9.52 2.19 9.52 2.19 9.52 2.19C9.72 2.27 9.82 2.37 9.82 2.49Z" id="a1IbluVLzt"></path><path d="M2.87 9.82C3.06 9.82 3.29 9.82 3.44 9.82C3.63 9.82 3.74 9.67 3.74 9.52C3.74 7.67 3.74 2.42 3.74 0.6C3.74 0.42 3.63 0.3 3.44 0.3C3.29 0.3 3.06 0.3 2.87 0.3C2.72 0.3 2.57 0.42 2.57 0.6C2.57 2.42 2.57 7.67 2.57 9.52C2.57 9.52 2.57 9.52 2.57 9.52C2.67 9.72 2.77 9.82 2.87 9.82Z" id="a28QHe6f2l"></path><path d="M9.82 6.72C9.82 6.91 9.82 7.14 9.82 7.29C9.82 7.48 9.71 7.59 9.52 7.59C7.71 7.59 2.42 7.59 0.6 7.59C0.42 7.59 0.3 7.48 0.3 7.29C0.3 7.14 0.3 6.91 0.3 6.72C0.3 6.57 0.42 6.42 0.6 6.42C2.42 6.42 7.71 6.42 9.52 6.42C9.52 6.42 9.52 6.42 9.52 6.42C9.72 6.52 9.82 6.62 9.82 6.72Z" id="bvAoVS6Pu"></path><path d="M7.04 9.82C7.19 9.82 7.46 9.82 7.64 9.82C7.83 9.82 7.95 9.67 7.95 9.52C7.95 7.67 7.95 2.46 7.95 0.6C7.95 0.45 7.83 0.3 7.64 0.3C7.46 0.3 7.19 0.3 7.04 0.3C6.85 0.3 6.7 0.45 6.7 0.6C6.7 2.46 6.7 7.67 6.7 9.52C6.7 9.52 6.7 9.52 6.7 9.52C6.8 9.72 6.91 9.82 7.04 9.82Z" id="a3lQWmOBhw"></path></defs><g><g><g><use xlink:href="#aCJVywSkL" opacity="1" fill="#000000" fill-opacity="0"></use><g><use xlink:href="#aCJVywSkL" opacity="1" fill-opacity="0" stroke="#000000" stroke-width="28.22" stroke-opacity="0"></use></g></g><g><use xlink:href="#a1IbluVLzt" opacity="1" fill="#b3804d" fill-opacity="1"></use><g><use xlink:href="#a1IbluVLzt" opacity="1" fill-opacity="0" stroke="#000000" stroke-width="28.22" stroke-opacity="0"></use></g></g><g><use xlink:href="#a28QHe6f2l" opacity="1" fill="#b3804d" fill-opacity="1"></use><g><use xlink:href="#a28QHe6f2l" opacity="1" fill-opacity="0" stroke="#000000" stroke-width="28.22" stroke-opacity="0"></use></g></g><g><use xlink:href="#bvAoVS6Pu" opacity="1" fill="#b3804d" fill-opacity="1"></use><g><use xlink:href="#bvAoVS6Pu" opacity="1" fill-opacity="0" stroke="#000000" stroke-width="28.22" stroke-opacity="0"></use></g></g><g><use xlink:href="#a3lQWmOBhw" opacity="1" fill="#b3804d" fill-opacity="1"></use><g><use xlink:href="#a3lQWmOBhw" opacity="1" fill-opacity="0" stroke="#000000" stroke-width="28.22" stroke-opacity="0"></use></g></g></g></g></svg>