<?xml version="1.0" encoding="UTF-8" standalone="no"?>
<!DOCTYPE svg PUBLIC "-//W3C//DTD SVG 1.1//EN" "http://www.w3.org/Graphics/SVG/1.1/DTD/svg11.dtd">
<svg version="1.1" xmlns="http://www.w3.org/2000/svg" xmlns:xlink="http://www.w3.org/1999/xlink" preserveAspectRatio="xMidYMid meet" viewBox="0 0 10 16" width="10" height="16"><defs><path d="M10.16 2.92C10.16 2.92 10.16 2.92 10.16 2.92C10.16 9.02 10.16 12.4 10.16 13.08C10.16 13.08 10.16 13.08 10.16 13.08C4.06 13.08 0.68 13.08 0 13.08C0 13.08 0 13.08 0 13.08C0 6.98 0 3.6 0 2.92C0 2.92 0 2.92 0 2.92C6.1 2.92 9.48 2.92 10.16 2.92Z" id="bFvRZ0qtE"></path><path d="M9.82 5.41C9.82 5.56 9.82 5.83 9.82 5.98C9.82 6.17 9.71 6.28 9.52 6.28C7.71 6.28 2.42 6.28 0.6 6.28C0.42 6.28 0.3 6.17 0.3 5.98C0.3 5.83 0.3 5.56 0.3 5.41C0.3 5.22 0.42 5.11 0.6 5.11C2.42 5.11 7.71 5.11 9.52 5.11C9.52 5.11 9.52 5.11 9.52 5.11C9.72 5.19 9.82 5.29 9.82 5.41Z" id="a8SjoKNh4"></path><path d="M2.87 12.74C3.06 12.74 3.29 12.74 3.44 12.74C3.63 12.74 3.74 12.59 3.74 12.44C3.74 10.59 3.74 5.34 3.74 3.52C3.74 3.33 3.63 3.22 3.44 3.22C3.29 3.22 3.06 3.22 2.87 3.22C2.72 3.22 2.57 3.33 2.57 3.52C2.57 5.34 2.57 10.59 2.57 12.44C2.57 12.44 2.57 12.44 2.57 12.44C2.67 12.64 2.77 12.74 2.87 12.74Z" id="jCmU3Qgv8"></path><path d="M9.82 9.64C9.82 9.83 9.82 10.06 9.82 10.21C9.82 10.4 9.71 10.51 9.52 10.51C7.71 10.51 2.42 10.51 0.6 10.51C0.42 10.51 0.3 10.4 0.3 10.21C0.3 10.06 0.3 9.83 0.3 9.64C0.3 9.49 0.42 9.34 0.6 9.34C2.42 9.34 7.71 9.34 9.52 9.34C9.52 9.34 9.52 9.34 9.52 9.34C9.72 9.44 9.82 9.54 9.82 9.64Z" id="a6BTaeNEWJ"></path><path d="M7.04 12.74C7.19 12.74 7.46 12.74 7.64 12.74C7.83 12.74 7.95 12.59 7.95 12.44C7.95 10.59 7.95 5.37 7.95 3.52C7.95 3.37 7.83 3.22 7.64 3.22C7.46 3.22 7.19 3.22 7.04 3.22C6.85 3.22 6.7 3.37 6.7 3.52C6.7 5.37 6.7 10.59 6.7 12.44C6.7 12.44 6.7 12.44 6.7 12.44C6.8 12.64 6.91 12.74 7.04 12.74Z" id="atQV1Wxy5"></path></defs><g><g><g><use xlink:href="#bFvRZ0qtE" opacity="1" fill="#000000" fill-opacity="0"></use><g><use xlink:href="#bFvRZ0qtE" opacity="1" fill-opacity="0" stroke="#000000" stroke-width="28.22" stroke-opacity="0"></use></g></g><g><use xlink:href="#a8SjoKNh4" opacity="1" fill="#b3804d" fill-opacity="1"></use><g><use xlink:href="#a8SjoKNh4" opacity="1" fill-opacity="0" stroke="#000000" stroke-width="28.22" stroke-opacity="0"></use></g></g><g><use xlink:href="#jCmU3Qgv8" opacity="1" fill="#b3804d" fill-opacity="1"></use><g><use xlink:href="#jCmU3Qgv8" opacity="1" fill-opacity="0" stroke="#000000" stroke-width="28.22" stroke-opacity="0"></use></g></g><g><use xlink:href="#a6BTaeNEWJ" opacity="1" fill="#b3804d" fill-opacity="1"></use><g><use xlink:href="#a6BTaeNEWJ" opacity="1" fill-opacity="0" stroke="#000000" stroke-width="28.22" stroke-opacity="0"></use></g></g><g><use xlink:href="#atQV1Wxy5" opacity="1" fill="#b3804d" fill-opacity="1"></use><g><use xlink:href="#atQV1Wxy5" opacity="1" fill-opacity="0" stroke="#000000" stroke-width="28.22" stroke-opacity="0"></use></g></g></g></g></svg>